<svg width="16" height="16" viewBox="0 0 16 16" fill="none" xmlns="http://www.w3.org/2000/svg">
<path d="M11.4869 8.02841C11.1795 7.88225 10.8658 7.75634 10.5465 7.65088C11.5804 6.87488 12.2504 5.63922 12.2504 4.25C12.2504 1.90656 10.3439 0 8.00038 0C5.65692 0 3.75038 1.90656 3.75038 4.25C3.75038 5.64075 4.42188 6.87762 5.45767 7.65347C4.50867 7.96591 3.6182 8.45206 2.83882 9.09313C1.4097 10.2687 0.416041 11.9083 0.0409472 13.7101C-0.0766153 14.2747 0.0642284 14.8545 0.427291 15.301C0.788572 15.7452 1.32429 16 1.89704 16H9.59413C9.93932 16 10.2191 15.7202 10.2191 15.375C10.2191 15.0298 9.93932 14.75 9.59413 14.75H1.89704C1.63023 14.75 1.46926 14.6011 1.39707 14.5123C1.27242 14.359 1.22417 14.1595 1.2647 13.9648C1.91329 10.8494 4.66129 8.57356 7.8347 8.49681C7.88967 8.49894 7.94488 8.5 8.00038 8.5C8.05642 8.5 8.1122 8.49891 8.1677 8.49675C9.1402 8.51956 10.0755 8.7415 10.9503 9.15738C11.2621 9.3055 11.6349 9.17297 11.7831 8.86119C11.9313 8.54944 11.7987 8.17659 11.4869 8.02841ZM8.15282 7.24616C8.1021 7.24525 8.05129 7.24478 8.00038 7.24478C7.94995 7.24478 7.89951 7.24528 7.84913 7.24622C6.26492 7.16719 5.00038 5.8535 5.00038 4.25C5.00038 2.59578 6.34617 1.25 8.00038 1.25C9.6546 1.25 11.0004 2.59578 11.0004 4.25C11.0004 5.85309 9.73648 7.16653 8.15282 7.24616Z" fill="white"/>
<path d="M15.375 12.4062H13.6562V10.6875C13.6562 10.3423 13.3764 10.0625 13.0312 10.0625C12.6861 10.0625 12.4062 10.3423 12.4062 10.6875V12.4062H10.6875C10.3423 12.4062 10.0625 12.6861 10.0625 13.0312C10.0625 13.3764 10.3423 13.6562 10.6875 13.6562H12.4062V15.375C12.4062 15.7202 12.6861 16 13.0312 16C13.3764 16 13.6562 15.7202 13.6562 15.375V13.6562H15.375C15.7202 13.6562 16 13.3764 16 13.0312C16 12.6861 15.7202 12.4062 15.375 12.4062Z" fill="#27AE60"/>
</svg>
