<svg width="31" height="31" viewBox="0 0 31 31" fill="none" xmlns="http://www.w3.org/2000/svg">
<circle cx="15.5" cy="15.5" r="15.5" fill="#2F80ED"/>
<mask id="mask0" mask-type="alpha" maskUnits="userSpaceOnUse" x="0" y="0" width="31" height="31">
<circle cx="15.5" cy="15.5" r="15.5" fill="#C4C4C4"/>
</mask>
<g mask="url(#mask0)">
<path d="M16.6526 29.769L17.4813 34.1196" stroke="white" stroke-linecap="round"/>
<path fill-rule="evenodd" clip-rule="evenodd" d="M17.3826 25.7643C18.2595 25.5519 20.1009 25.4244 20.4517 26.6142C20.8024 27.804 20.3055 28.3848 20.0132 28.5264C21.694 29.7304 24.8361 33.0732 23.9593 36.8126H15.4096V36.8128H6.85986C5.98297 33.0734 9.12516 29.7306 10.8059 28.5266C10.5136 28.385 10.0167 27.8042 10.3674 26.6144C10.7182 25.4246 12.5596 25.5521 13.4365 25.7645L15.4096 26.6144V26.6142L17.3826 25.7643Z" fill="#333333"/>
<path d="M16.6525 30.5976L20.3816 28.3187L20.796 29.1474L16.6525 30.5976Z" fill="#1D1D1D"/>
<mask id="mask1" mask-type="alpha" maskUnits="userSpaceOnUse" x="6" y="25" width="19" height="12">
<path fill-rule="evenodd" clip-rule="evenodd" d="M17.3826 25.7643C18.2595 25.5519 20.1009 25.4244 20.4517 26.6142C20.8024 27.804 20.3055 28.3848 20.0132 28.5264C21.694 29.7304 24.8361 33.0732 23.9593 36.8126H15.4096V36.8128H6.85986C5.98297 33.0734 9.12516 29.7306 10.8059 28.5266C10.5136 28.385 10.0167 27.8042 10.3674 26.6144C10.7182 25.4246 12.5596 25.5521 13.4365 25.7645L15.4096 26.6144V26.6142L17.3826 25.7643Z" fill="#333333"/>
</mask>
<g mask="url(#mask1)">
<path d="M14.1665 30.5974L10.4374 28.3185L10.0231 29.1472L14.1665 30.5974Z" fill="#1D1D1D"/>
</g>
<path d="M14.1665 29.9759L13.3378 34.3265" stroke="white" stroke-linecap="round"/>
<rect x="12.5091" y="20.2387" width="5.80083" height="8.70124" rx="2.90041" fill="#F5B1B1"/>
<path d="M21.2103 15.2665C21.2103 17.0972 21.5875 18.7885 23.0749 18.7885C24.5623 18.7885 25.9753 16.6829 25.9753 14.8522C25.9753 13.0215 25.391 11.9518 23.9036 11.9518C22.4162 11.9518 21.2103 13.4359 21.2103 15.2665Z" fill="#F5B1B1"/>
<path d="M9.60872 15.2672C9.60872 17.0978 9.2316 18.7891 7.74416 18.7891C6.25673 18.7891 4.84375 16.6835 4.84375 14.8528C4.84375 13.0221 5.42804 11.9524 6.91547 11.9524C8.40291 11.9524 9.60872 13.4365 9.60872 15.2672Z" fill="#F5B1B1"/>
<rect x="7.12265" y="4.90796" width="16.5738" height="20.3029" rx="8.2869" fill="#FFD9CB"/>
<path d="M15.4095 22.7248C16.7216 22.932 17.6884 22.3105 18.1028 21.2746" stroke="#EB5757" stroke-width="0.5" stroke-linecap="round"/>
<rect x="14.9952" y="18.167" width="1.65738" height="2.90041" rx="0.82869" fill="#F5B1B1"/>
<path d="M18.5586 13.4447H20.1331C21.2765 13.4447 22.2035 14.3716 22.2035 15.515V15.8879C22.2035 17.4661 20.9241 18.7455 19.3459 18.7455C17.7677 18.7455 16.4883 17.4661 16.4883 15.8879V15.515C16.4883 14.3716 17.4152 13.4447 18.5586 13.4447Z" fill="white" fill-opacity="0.3" stroke="#333333" stroke-width="0.5"/>
<path d="M10.6861 13.4447H12.2606C13.404 13.4447 14.3309 14.3716 14.3309 15.515V15.8879C14.3309 17.4661 13.0515 18.7455 11.4733 18.7455C9.89511 18.7455 8.61572 17.4661 8.61572 15.8879V15.515C8.61572 14.3716 9.54264 13.4447 10.6861 13.4447Z" fill="white" fill-opacity="0.3" stroke="#333333" stroke-width="0.5"/>
<circle cx="11" cy="16" r="1" fill="#092C4C"/>
<circle cx="19" cy="16" r="1" fill="#092C4C"/>
<path d="M16.6526 11.7447C17.2741 11.1923 18.9729 10.4188 20.796 11.7447" stroke="#282828" stroke-width="0.5" stroke-linecap="round"/>
<path d="M10.0231 11.7447C10.6446 11.1923 12.3434 10.4188 14.1665 11.7447" stroke="#282828" stroke-width="0.5" stroke-linecap="round"/>
<path d="M9.1944 7.60126C8.72639 6.85281 6.64355 9.87998 6.64355 9.87998C6.64355 9.87998 6.02206 11.952 6.43641 13.4022C6.85075 14.8524 7.05799 17.3385 7.05799 17.3385C7.05799 17.3385 7.47227 14.4758 8.30096 13.6094C9.12965 12.7431 9.81147 8.58809 9.1944 7.60126Z" fill="#333333"/>
<path d="M5.87977 11.5376C9.60542 11.3982 10.6902 7.57846 11.8877 6.35829C12.9522 5.24265 14.1294 5.72723 13.4641 5.43674C7.82243 3.20556 6.05718 8.57432 5.87977 11.5376Z" fill="#092C4C"/>
<path d="M21.2104 10.0872C21.6784 9.33876 24.1108 9.87978 24.1108 9.87978C24.1108 9.87978 24.7323 11.9518 24.318 13.402C23.9036 14.8522 23.6964 17.3383 23.6964 17.3383C23.6964 17.3383 23.2821 14.4756 22.4534 13.6092C21.6247 12.7428 20.5933 11.074 21.2104 10.0872Z" fill="#333333"/>
<path d="M24.5252 11.1231C18.1384 10.9401 12.4358 7.69138 10.3829 6.0899C8.5581 4.62563 10.3829 3.49701 11.5234 3.11573C21.1949 0.187319 24.221 7.23382 24.5252 11.1231Z" fill="#092C4C"/>
</g>
</svg>
