<svg width="50" height="50" viewBox="0 0 50 50" fill="none" xmlns="http://www.w3.org/2000/svg">
<circle cx="25" cy="25" r="25" fill="#2F80ED"/>
<mask id="mask0" mask-type="alpha" maskUnits="userSpaceOnUse" x="0" y="0" width="50" height="50">
<circle cx="25" cy="25" r="25" fill="url(#paint0_linear)"/>
</mask>
<g mask="url(#mask0)">
<path d="M26.859 48.0148L28.1956 55.032" stroke="white" stroke-linecap="round"/>
<path fill-rule="evenodd" clip-rule="evenodd" d="M28.0364 41.5557C29.4507 41.213 32.4208 41.0074 32.9866 42.9265C33.5523 44.8455 32.7509 45.7822 32.2794 46.0107C34.9902 47.9526 40.0583 53.3442 38.6439 59.3755H24.8541V42.9265L28.0364 41.5557ZM21.6718 41.5559C20.2575 41.2132 17.2873 41.0076 16.7216 42.9267C16.1559 44.8457 16.9573 45.7824 17.4288 46.0109C14.718 47.9528 9.64991 53.3444 11.0642 59.3757H24.8541V42.9267L21.6718 41.5559Z" fill="#333333"/>
<path d="M26.8589 49.3513L32.8736 45.6757L33.5419 47.0123L26.8589 49.3513Z" fill="#1D1D1D"/>
<mask id="mask1" mask-type="alpha" maskUnits="userSpaceOnUse" x="10" y="41" width="29" height="19">
<path fill-rule="evenodd" clip-rule="evenodd" d="M28.0364 41.5557C29.4507 41.213 32.4208 41.0074 32.9866 42.9265C33.5523 44.8455 32.7509 45.7822 32.2794 46.0107C34.9902 47.9526 40.0583 53.3442 38.6439 59.3755H24.8541V42.9265L28.0364 41.5557ZM21.6718 41.5559C20.2575 41.2132 17.2873 41.0076 16.7216 42.9267C16.1559 44.8457 16.9573 45.7824 17.4288 46.0109C14.718 47.9528 9.64991 53.3444 11.0642 59.3757H24.8541V42.9267L21.6718 41.5559Z" fill="#333333"/>
</mask>
<g mask="url(#mask1)">
<path d="M22.8492 49.3511L16.8346 45.6754L16.1663 47.012L22.8492 49.3511Z" fill="#1D1D1D"/>
</g>
<path d="M22.8492 48.3486L21.5126 55.3658" stroke="white" stroke-linecap="round"/>
<path d="M23.46 35.7816C25.3213 36.8427 27.1344 36.4566 28.3505 35.1303" stroke="#EB5757" stroke-linecap="round"/>
<rect x="20.1759" y="32.6431" width="9.35617" height="14.0343" rx="4.67809" fill="#F5B1B1"/>
<path d="M34.2103 24.6236C34.2103 27.5763 34.8185 30.3041 37.2176 30.3041C39.6167 30.3041 41.8957 26.908 41.8957 23.9553C41.8957 21.0026 40.9533 19.2772 38.5542 19.2772C36.1551 19.2772 34.2103 21.6708 34.2103 24.6236Z" fill="#F5B1B1"/>
<path d="M15.4979 24.6242C15.4979 27.5769 14.8897 30.3047 12.4906 30.3047C10.0915 30.3047 7.8125 26.9086 7.8125 23.9559C7.8125 21.0031 8.7549 19.2778 11.154 19.2778C13.5531 19.2778 15.4979 21.6714 15.4979 24.6242Z" fill="#F5B1B1"/>
<rect x="11.4882" y="7.91626" width="26.7319" height="32.7466" rx="13.366" fill="#FFD9CB"/>
<rect x="24.1858" y="29.3015" width="2.67319" height="4.67809" rx="1.3366" fill="#F5B1B1"/>
<circle cx="19" cy="25" r="2" fill="#092C4C"/>
<circle cx="30" cy="25" r="2" fill="#092C4C"/>
<path d="M26.5625 21.0938C27.6172 21.0938 30.5 21.0938 33.5938 21.0938" stroke="#092C4C" stroke-linecap="round"/>
<path d="M15.625 18.75C16.6797 18.75 19.5625 18.75 22.6562 18.75" stroke="#092C4C" stroke-linecap="round"/>
<path fill-rule="evenodd" clip-rule="evenodd" d="M23.0034 4.11537C23.7374 2.60421 25.287 1.5625 27.0798 1.5625C29.4492 1.5625 31.3937 3.38194 31.5922 5.6999C31.7333 5.68666 31.8762 5.67989 32.0207 5.67989C34.0959 5.67989 35.8452 7.07558 36.381 8.97949C36.4368 8.97573 36.493 8.97381 36.5498 8.97381C37.9142 8.97381 39.0202 10.0799 39.0202 11.4443C39.0202 11.83 38.9318 12.1952 38.7741 12.5205C39.4116 12.8703 39.8437 13.5479 39.8437 14.3264C39.8437 15.4634 38.922 16.3851 37.785 16.3851C37.2605 16.3851 36.7818 16.189 36.4182 15.866C35.9998 16.1914 35.474 16.3851 34.9029 16.3851C33.8154 16.3851 32.8919 15.6824 32.562 14.7062C32.3845 14.7273 32.2039 14.7382 32.0207 14.7382C31.5495 14.7382 31.0951 14.6662 30.6679 14.5327C30.2017 16.538 28.4035 18.0321 26.2563 18.0321C24.0674 18.0321 22.2411 16.4793 21.8191 14.4151C21.4218 14.6215 20.9705 14.7382 20.4919 14.7382C20.2667 14.7382 20.0475 14.7123 19.8371 14.6635C19.3906 15.6773 18.377 16.3851 17.1981 16.3851C16.2686 16.3851 15.442 15.9452 14.9149 15.2622C14.5742 15.9288 13.8807 16.3851 13.0807 16.3851C11.9437 16.3851 11.022 15.4634 11.022 14.3264C11.022 13.9718 11.1116 13.6382 11.2695 13.3469C11.1109 13.0208 11.022 12.6547 11.022 12.2677C11.022 12.1763 11.0269 12.0861 11.0366 11.9973C10.055 11.5377 9.375 10.541 9.375 9.38555C9.375 7.79376 10.6654 6.50337 12.2572 6.50337C13.0637 6.50337 13.7928 6.83461 14.3159 7.36846C14.6383 7.03949 15.0388 6.78746 15.4875 6.64246C15.2655 6.23396 15.1394 5.76578 15.1394 5.26815C15.1394 3.67637 16.4298 2.38597 18.0216 2.38597C19.2583 2.38597 20.3131 3.16491 20.7221 4.25895C21.1678 4.11229 21.6441 4.03295 22.1389 4.03295C22.4345 4.03295 22.7236 4.06128 23.0034 4.11537Z" fill="#092C4C"/>
</g>
<defs>
<linearGradient id="paint0_linear" x1="25" y1="0" x2="25" y2="50" gradientUnits="userSpaceOnUse">
<stop stop-color="#FFC1C2"/>
<stop offset="1" stop-color="#E97C7C"/>
</linearGradient>
</defs>
</svg>
