<svg width="50" height="50" viewBox="0 0 50 50" fill="none" xmlns="http://www.w3.org/2000/svg">
<circle cx="25" cy="25" r="25" fill="#2F80ED"/>
<mask id="mask0" mask-type="alpha" maskUnits="userSpaceOnUse" x="0" y="0" width="50" height="50">
<circle cx="25" cy="25" r="25" fill="url(#paint0_linear)"/>
</mask>
<g mask="url(#mask0)">
<path d="M26.859 48.0147L28.1956 55.0319" stroke="white" stroke-linecap="round"/>
<path fill-rule="evenodd" clip-rule="evenodd" d="M28.0364 41.5556C29.4507 41.2129 32.4208 41.0073 32.9866 42.9264C33.5523 44.8454 32.7509 45.7821 32.2794 46.0106C34.9902 47.9525 40.0583 53.3441 38.6439 59.3754H24.8541V42.9264L28.0364 41.5556ZM21.6718 41.5558C20.2575 41.2131 17.2873 41.0075 16.7216 42.9266C16.1559 44.8456 16.9573 45.7823 17.4288 46.0108C14.718 47.9527 9.64991 53.3443 11.0642 59.3756H24.8541V42.9266L21.6718 41.5558Z" fill="#333333"/>
<path d="M26.8589 49.3512L32.8736 45.6756L33.5419 47.0122L26.8589 49.3512Z" fill="#1D1D1D"/>
<mask id="mask1" mask-type="alpha" maskUnits="userSpaceOnUse" x="10" y="41" width="29" height="19">
<path fill-rule="evenodd" clip-rule="evenodd" d="M28.0364 41.5556C29.4507 41.2129 32.4208 41.0073 32.9866 42.9264C33.5523 44.8454 32.7509 45.7821 32.2794 46.0106C34.9902 47.9525 40.0583 53.3441 38.6439 59.3754H24.8541V42.9264L28.0364 41.5556ZM21.6718 41.5558C20.2575 41.2131 17.2873 41.0075 16.7216 42.9266C16.1559 44.8456 16.9573 45.7823 17.4288 46.0108C14.718 47.9527 9.64991 53.3443 11.0642 59.3756H24.8541V42.9266L21.6718 41.5558Z" fill="#333333"/>
</mask>
<g mask="url(#mask1)">
<path d="M22.8492 49.351L16.8346 45.6753L16.1663 47.0119L22.8492 49.351Z" fill="#1D1D1D"/>
</g>
<path d="M22.8492 48.3485L21.5126 55.3656" stroke="white" stroke-linecap="round"/>
<path d="M23.46 35.7816C25.3213 36.8427 27.1344 36.4566 28.3505 35.1303" stroke="#EB5757" stroke-linecap="round"/>
<rect x="20.176" y="32.6433" width="9.35617" height="14.0343" rx="4.67809" fill="#F5B1B1"/>
<path d="M34.2103 24.6236C34.2103 27.5764 34.8185 30.3042 37.2176 30.3042C39.6167 30.3042 41.8957 26.9081 41.8957 23.9553C41.8957 21.0026 40.9533 19.2773 38.5542 19.2773C36.1551 19.2773 34.2103 21.6709 34.2103 24.6236Z" fill="#F5B1B1"/>
<path d="M15.4979 24.6242C15.4979 27.5769 14.8897 30.3048 12.4906 30.3048C10.0915 30.3048 7.8125 26.9086 7.8125 23.9559C7.8125 21.0032 8.7549 19.2778 11.154 19.2778C13.5531 19.2778 15.4979 21.6715 15.4979 24.6242Z" fill="#F5B1B1"/>
<rect x="11.4882" y="7.91626" width="26.7319" height="32.7466" rx="13.366" fill="#FFD9CB"/>
<rect x="24.1858" y="29.3018" width="2.67319" height="4.67809" rx="1.3366" fill="#F5B1B1"/>
<circle cx="19.75" cy="24.75" r="1.75" fill="#092C4C"/>
<circle cx="30.75" cy="24.75" r="1.75" fill="#092C4C"/>
<path d="M16.4062 18.75C17.3438 18.75 19.9062 18.75 22.6562 18.75" stroke="#092C4C" stroke-linecap="round"/>
<path d="M26.859 18.9434C27.8615 18.0523 30.6015 16.8048 33.542 18.9434" stroke="#092C4C" stroke-linecap="round"/>
</g>
<circle cx="30.5625" cy="32.5625" r="1.5625" fill="#F5B1B1" fill-opacity="0.3"/>
<circle cx="30.5625" cy="32.5625" r="1.5625" fill="#F5B1B1" fill-opacity="0.3"/>
<circle cx="20.5625" cy="32.5625" r="1.5625" fill="#F5B1B1" fill-opacity="0.3"/>
<circle cx="20.5625" cy="32.5625" r="1.5625" fill="#F5B1B1" fill-opacity="0.3"/>
<defs>
<linearGradient id="paint0_linear" x1="25" y1="0" x2="25" y2="50" gradientUnits="userSpaceOnUse">
<stop stop-color="#FFC1C2"/>
<stop offset="1" stop-color="#E97C7C"/>
</linearGradient>
</defs>
</svg>
