<svg width="47" height="31" viewBox="0 0 47 31" fill="none" xmlns="http://www.w3.org/2000/svg">
<path d="M45.343 2.24519L43.8336 0.735785C43.3593 0.261122 42.7269 0 42.0518 0C41.3767 0 40.7439 0.261122 40.2697 0.735785L19.0604 21.9447L5.80911 8.69305C5.33482 8.21914 4.70206 7.95764 4.02697 7.95764C3.35225 7.95764 2.71986 8.21914 2.2452 8.69305L0.735411 10.2021C0.260747 10.6775 0 11.3106 0 11.985C0 12.6597 0.260747 13.2925 0.735411 13.7671L15.6969 28.7278C15.7167 28.7559 15.7377 28.7822 15.7621 28.8061L17.2719 30.2908C17.7461 30.7636 18.3789 31 19.0592 31H19.0671C19.7426 31 20.3753 30.7636 20.8489 30.2908L22.359 28.793C22.3834 28.769 22.404 28.7492 22.4164 28.729L45.3426 5.80498C46.326 4.82381 46.326 3.22749 45.343 2.24519Z" fill="#27AE60"/>
</svg>
