<svg width="42" height="42" viewBox="0 0 42 42" fill="none" xmlns="http://www.w3.org/2000/svg">
<g clip-path="url(#clip0)">
<path d="M40.2129 20.1692C40.9207 19.4579 41.3324 18.4935 41.3324 17.4584C41.3324 15.9653 40.4782 14.653 39.2072 14.0123C39.4707 13.4853 39.6102 12.9015 39.6102 12.2919C39.6102 10.7987 38.7543 9.48474 37.4833 8.84578C37.8759 8.06047 37.9913 7.15632 37.7933 6.25904C37.4075 4.51444 35.7663 3.25041 33.8908 3.25041H18.0829C16.886 3.25041 14.9571 3.63791 13.5243 4.37503C12.925 2.71656 11.3337 1.52826 9.47205 1.52826H4.30551C1.93059 1.52826 0 3.45877 0 5.83369V19.6112C0 21.9861 1.93059 23.9166 4.30543 23.9166H12.9164C13.3917 23.9166 13.7775 23.5308 13.7775 23.0555V22.7265L13.9824 22.8298L18.944 33.5763V39.4162C18.944 39.6779 19.0629 39.9259 19.266 40.0895C19.3212 40.1308 20.6007 41.1383 22.3883 41.1383C24.3809 41.1383 27.5549 37.985 27.5549 34.2496C27.5549 31.8937 26.711 28.9608 26.184 27.3609H36.822C39.14 27.3609 41.1119 25.6456 41.3152 23.4567C41.4271 22.2288 41.0172 21.0492 40.2129 20.1692ZM38.3719 20.8632C39.2175 21.385 39.6894 22.3184 39.5981 23.3001C39.4776 24.6107 38.2583 25.6388 36.822 25.6388H24.9716C24.6891 25.6388 24.424 25.7783 24.2621 26.0108C24.1019 26.245 24.0658 26.543 24.1674 26.8065C24.1829 26.8495 25.8327 31.2187 25.8327 34.2498C25.8327 37.0707 23.3321 39.4163 22.3883 39.4163C21.646 39.4163 21.0227 39.146 20.6662 38.9496V33.3887C20.6662 33.2647 20.6387 33.1407 20.5852 33.0271L15.4187 21.8329C15.3377 21.6572 15.1982 21.5125 15.0225 21.4247L13.3004 20.5636C13.0334 20.4293 12.7149 20.4465 12.4634 20.5998C12.2102 20.7582 12.0552 21.0354 12.0552 21.3334V22.1945H4.30543C2.88116 22.1945 1.72215 21.0355 1.72215 19.6112V5.83369C1.72215 4.40942 2.88116 3.25041 4.30543 3.25041H9.47197C10.8962 3.25041 12.0552 4.40942 12.0552 5.83369C12.0552 6.18154 12.2654 6.4967 12.5874 6.62933C12.9077 6.76019 13.278 6.68786 13.526 6.44334C14.3389 5.62872 16.6845 4.97257 18.0829 4.97257H33.8908C34.9655 4.97257 35.8989 5.66836 36.1108 6.63273C36.2813 7.40254 36.0539 8.14999 35.4873 8.68554C35.2428 8.91456 35.1532 9.26419 35.26 9.58452C35.3668 9.90315 35.6475 10.1305 35.9798 10.1683C37.0665 10.2923 37.888 11.2051 37.888 12.2918C37.888 12.8842 37.6451 13.4388 37.2095 13.8521C36.9649 14.0811 36.8753 14.4307 36.9821 14.7511C37.0889 15.0697 37.3696 15.297 37.702 15.3349C38.7886 15.4589 39.6101 16.3717 39.6101 17.4583C39.6101 18.2608 39.1589 18.9911 38.4305 19.3631C38.1549 19.5061 37.9775 19.7851 37.9638 20.0967C37.9517 20.4068 38.1084 20.6995 38.3719 20.8632Z" fill="white"/>
<path d="M12.9164 4.97257C12.441 4.97257 12.0552 5.35837 12.0552 5.83369V21.3333C12.0552 21.8086 12.441 22.1944 12.9164 22.1944C13.3917 22.1944 13.7775 21.8086 13.7775 21.3333V5.83369C13.7775 5.35837 13.3917 4.97257 12.9164 4.97257Z" fill="white"/>
</g>
<defs>
<clipPath id="clip0">
<rect width="41.3333" height="41.3333" fill="white" transform="translate(0 0.666664)"/>
</clipPath>
</defs>
</svg>
