<svg width="16" height="16" viewBox="0 0 16 16" fill="none" xmlns="http://www.w3.org/2000/svg">
<path d="M16 9.50001C16 9.09935 15.8407 8.72601 15.566 8.45066C15.8773 8.11001 16.036 7.65332 15.9927 7.17801C15.9147 6.33066 15.1513 5.66666 14.254 5.66666H10.136C10.34 5.04732 10.6667 3.91201 10.6667 3.00001C10.6667 1.55401 9.438 0.333351 8.66666 0.333351C7.97466 0.333351 7.47931 0.723351 7.45866 0.739351C7.37931 0.802695 7.33331 0.898695 7.33331 1.00001V3.26066L5.41266 7.42001L5.33331 7.46066V7.33332C5.33331 7.14932 5.18397 6.99998 4.99997 6.99998H1.66666C0.747344 7.00001 0 7.74735 0 8.66666V14C0 14.9194 0.747344 15.6667 1.66666 15.6667H3.66666C4.38731 15.6667 5.00331 15.2067 5.23531 14.5647C5.79 14.85 6.53666 15 7 15H13.1193C13.8453 15 14.4807 14.5107 14.63 13.836C14.7067 13.488 14.662 13.138 14.51 12.834C15.002 12.5867 15.3333 12.078 15.3333 11.5C15.3333 11.264 15.2793 11.038 15.1773 10.834C15.6693 10.586 16 10.078 16 9.50001ZM14.594 10.3227C14.4653 10.338 14.3567 10.4253 14.3153 10.5487C14.2747 10.672 14.3087 10.8073 14.4033 10.8967C14.5727 11.056 14.6667 11.2707 14.6667 11.5C14.6667 11.9207 14.3487 12.274 13.928 12.3227C13.7994 12.338 13.6907 12.4253 13.6494 12.5487C13.6087 12.672 13.6427 12.8073 13.7374 12.8967C13.9567 13.1033 14.0447 13.3933 13.9787 13.692C13.8967 14.064 13.5354 14.3334 13.1194 14.3334H7C6.45866 14.3334 5.55066 14.0794 5.236 13.764C5.14066 13.6694 4.99666 13.6414 4.87266 13.692C4.748 13.7434 4.66666 13.8654 4.66666 14C4.66666 14.5514 4.218 15 3.66666 15H1.66666C1.11531 15 0.666656 14.5514 0.666656 14V8.66666C0.666656 8.11532 1.11531 7.66666 1.66666 7.66666H4.66666V8.00001C4.66666 8.11535 4.72666 8.22266 4.82531 8.28401C4.92266 8.34266 5.04531 8.34866 5.14931 8.29801L5.81597 7.96466C5.88331 7.93132 5.93731 7.87532 5.96931 7.80666L7.96931 3.47332C7.98931 3.42932 7.99997 3.38132 7.99997 3.33332V1.18066C8.13866 1.10401 8.37934 1.00001 8.66666 1.00001C9.032 1.00001 10 1.90801 10 3.00001C10 4.17335 9.36134 5.86466 9.35534 5.88135C9.31669 5.98335 9.33 6.09869 9.392 6.18935C9.45466 6.27935 9.55734 6.33335 9.66666 6.33335H14.254C14.81 6.33335 15.282 6.73135 15.3287 7.23935C15.364 7.61935 15.1813 7.9807 14.854 8.1827C14.752 8.24535 14.6913 8.3587 14.696 8.47935C14.7007 8.60001 14.77 8.70801 14.8767 8.76335C15.1587 8.9067 15.3333 9.18935 15.3333 9.50001C15.3333 9.92066 15.0153 10.274 14.594 10.3227Z" fill="#092C4C"/>
<path d="M5 7.66666C4.816 7.66666 4.66666 7.816 4.66666 8V14C4.66666 14.184 4.816 14.3333 5 14.3333C5.184 14.3333 5.33334 14.184 5.33334 14V8C5.33334 7.816 5.184 7.66666 5 7.66666Z" fill="#092C4C"/>
</svg>
