<svg width="42" height="43" viewBox="0 0 42 43" fill="none" xmlns="http://www.w3.org/2000/svg">
<g clip-path="url(#clip0)">
<path d="M41.3333 25.4797C41.3333 24.4421 40.9217 23.4752 40.2122 22.7621C41.0165 21.8799 41.4263 20.6972 41.3144 19.4662C41.1129 17.2717 39.1409 15.5521 36.8228 15.5521H26.1847C26.7117 13.9482 27.5555 11.0079 27.5555 8.64604C27.5555 4.90121 24.3815 1.73996 22.3889 1.73996C20.6012 1.73996 19.3216 2.74998 19.2682 2.79142C19.0632 2.95546 18.9444 3.20408 18.9444 3.46646V9.32109L13.9827 20.0929L13.7777 20.1982V19.8684C13.7777 19.3919 13.3919 19.0051 12.9166 19.0051H4.30553C1.93064 19.0052 0 20.9407 0 23.3215V37.1338C0 39.5147 1.93064 41.45 4.30553 41.45H9.47219C11.3339 41.45 12.9252 40.2587 13.5246 38.5961C14.9575 39.3351 16.8864 39.7235 18.0833 39.7235H33.8916C35.7671 39.7235 37.4084 38.4562 37.7942 36.709C37.9922 35.8078 37.8768 34.9013 37.4842 34.1141C38.7552 33.4735 39.6111 32.1562 39.6111 30.6593C39.6111 30.0481 39.4716 29.4628 39.2081 28.9345C40.4791 28.2922 41.3333 26.9766 41.3333 25.4797ZM37.7012 27.6102C37.3688 27.6499 37.088 27.8761 36.9813 28.1955C36.8763 28.5149 36.9641 28.8654 37.2086 29.0967C37.6461 29.5094 37.8889 30.0653 37.8889 30.6593C37.8889 31.7487 37.0674 32.6638 35.9807 32.7898C35.6484 32.8295 35.3676 33.0556 35.2609 33.3751C35.1559 33.6945 35.2437 34.0449 35.4882 34.2763C36.0549 34.8115 36.2822 35.5626 36.1117 36.3361C35.8999 37.2995 34.9664 37.997 33.8917 37.997H18.0833C16.6849 37.997 14.3392 37.3392 13.5263 36.5226C13.28 36.2774 12.908 36.2049 12.5877 36.3361C12.2657 36.4691 12.0555 36.785 12.0555 37.1338C12.0555 38.5616 10.8965 39.7235 9.47219 39.7235H4.30553C2.88122 39.7235 1.7222 38.5616 1.7222 37.1338V23.3215C1.7222 21.8936 2.88122 20.7317 4.30553 20.7317H12.0555V21.595C12.0555 21.8937 12.2105 22.1716 12.4654 22.3305C12.7169 22.4824 13.0337 22.4979 13.3024 22.3668L15.0246 21.5035C15.1986 21.4171 15.3381 21.2721 15.4207 21.0943L20.5874 9.87182C20.6391 9.75787 20.6666 9.63356 20.6666 9.50925V3.93432C21.0249 3.7358 21.6466 3.46646 22.3889 3.46646C23.3327 3.46646 25.8333 5.81799 25.8333 8.64604C25.8333 11.6848 24.1835 16.0649 24.168 16.1081C24.0681 16.3723 24.1025 16.671 24.2627 16.9058C24.4245 17.1389 24.6898 17.2787 24.9722 17.2787H36.8228C38.2592 17.2787 39.4785 18.3094 39.599 19.6251C39.6903 20.6092 39.2184 21.545 38.3728 22.0681C38.1093 22.2304 37.9526 22.5239 37.9647 22.8364C37.9767 23.1489 38.1558 23.4286 38.4314 23.5719C39.1599 23.9431 39.6111 24.6752 39.6111 25.4797C39.6111 26.5691 38.7896 27.4842 37.7012 27.6102Z" fill="white"/>
<path d="M12.9166 20.7317C12.4413 20.7317 12.0555 21.1185 12.0555 21.595V37.1337C12.0555 37.6103 12.4413 37.997 12.9166 37.997C13.392 37.997 13.7778 37.6103 13.7778 37.1337V21.595C13.7778 21.1185 13.392 20.7317 12.9166 20.7317Z" fill="white"/>
</g>
<defs>
<clipPath id="clip0">
<rect width="41.3333" height="41.4367" fill="white" transform="translate(0 0.876663)"/>
</clipPath>
</defs>
</svg>
