<svg width="31" height="31" viewBox="0 0 31 31" fill="none" xmlns="http://www.w3.org/2000/svg">
<path d="M27.6786 0H3.32143C1.48705 0 0 1.48705 0 3.32143V27.6786C0 29.5129 1.48705 31 3.32143 31H27.6786C29.5129 31 31 29.5129 31 27.6786V3.32143C31 1.48705 29.5129 0 27.6786 0ZM9.96428 24.3571H6.64285C6.03137 24.3571 5.53569 23.8615 5.53569 23.25C5.53569 22.6385 6.03137 22.1428 6.64285 22.1428H9.96428C10.5758 22.1428 11.0714 22.6385 11.0714 23.25C11.0714 23.8615 10.5758 24.3571 9.96428 24.3571ZM9.96428 16.6071H6.64285C6.03137 16.6071 5.53569 16.1114 5.53569 15.5C5.53569 14.8885 6.03137 14.3928 6.64285 14.3928H9.96428C10.5758 14.3928 11.0714 14.8885 11.0714 15.5C11.0714 16.1114 10.5758 16.6071 9.96428 16.6071ZM9.96428 8.85712H6.64285C6.03137 8.85712 5.53569 8.36143 5.53569 7.74995C5.53569 7.13847 6.03137 6.64285 6.64285 6.64285H9.96428C10.5758 6.64285 11.0714 7.13854 11.0714 7.75002C11.0714 8.3615 10.5758 8.85712 9.96428 8.85712ZM24.3571 24.3571H14.3929C13.7814 24.3571 13.2857 23.8615 13.2857 23.25C13.2857 22.6385 13.7814 22.1428 14.3929 22.1428H24.3571C24.9686 22.1428 25.4643 22.6385 25.4643 23.25C25.4643 23.8615 24.9686 24.3571 24.3571 24.3571ZM24.3571 16.6071H14.3929C13.7814 16.6071 13.2857 16.1114 13.2857 15.5C13.2857 14.8885 13.7814 14.3928 14.3929 14.3928H24.3571C24.9686 14.3928 25.4643 14.8885 25.4643 15.5C25.4643 16.1114 24.9686 16.6071 24.3571 16.6071ZM24.3571 8.85712H14.3929C13.7814 8.85712 13.2857 8.36143 13.2857 7.74995C13.2857 7.13847 13.7814 6.64279 14.3929 6.64279H24.3571C24.9686 6.64279 25.4643 7.13847 25.4643 7.74995C25.4643 8.36143 24.9686 8.85712 24.3571 8.85712Z" fill="#092C4C"/>
</svg>
