<svg width="10" height="10" viewBox="0 0 10 10" fill="none" xmlns="http://www.w3.org/2000/svg">
<path d="M1.42856 3.70372C0.712635 3.70372 0.132263 4.28409 0.132263 5.00002C0.132263 5.71594 0.712635 6.29632 1.42856 6.29632C2.14449 6.29632 2.72486 5.71594 2.72486 5.00002C2.72486 4.28409 2.14449 3.70372 1.42856 3.70372ZM1.42856 5.76721C1.00486 5.76721 0.661365 5.42372 0.661365 5.00002C0.661365 4.57632 1.00486 4.23282 1.42856 4.23282C1.85226 4.23282 2.19576 4.57632 2.19576 5.00002C2.19576 5.42372 1.85229 5.76721 1.42856 5.76721Z" fill="#092C4C"/>
<path d="M9.60319 4.73546H3.62434C3.47823 4.73546 3.35979 4.8539 3.35979 5.00001C3.35979 5.14612 3.47823 5.26456 3.62434 5.26456H9.60319C9.7493 5.26456 9.86774 5.14612 9.86774 5.00001C9.86774 4.8539 9.7493 4.73546 9.60319 4.73546Z" fill="#092C4C"/>
<path d="M1.42856 0C0.712635 0 0.132263 0.580371 0.132263 1.2963C0.132263 2.01222 0.712635 2.59259 1.42856 2.59259C2.14449 2.59259 2.72486 2.01222 2.72486 1.2963C2.72486 0.580371 2.14449 0 1.42856 0ZM1.42856 2.06349C1.00486 2.06349 0.661365 1.72 0.661365 1.2963C0.661365 0.872594 1.00486 0.529101 1.42856 0.529101C1.85226 0.529101 2.19576 0.872594 2.19576 1.2963C2.19576 1.72 1.85229 2.06349 1.42856 2.06349Z" fill="#092C4C"/>
<path d="M3.62434 1.56084H9.60319C9.7493 1.56084 9.86774 1.4424 9.86774 1.29629C9.86774 1.15018 9.7493 1.03174 9.60319 1.03174H3.62434C3.47823 1.03174 3.35979 1.15018 3.35979 1.29629C3.35979 1.4424 3.47823 1.56084 3.62434 1.56084Z" fill="#092C4C"/>
<path d="M1.42856 7.40741C0.712635 7.40741 0.132263 7.98778 0.132263 8.70371C0.132263 9.41963 0.712635 10 1.42856 10C2.14449 10 2.72486 9.41963 2.72486 8.70371C2.72486 7.98778 2.14449 7.40741 1.42856 7.40741ZM2.19576 8.70371C2.19576 9.12741 1.85226 9.4709 1.42856 9.4709C1.00486 9.4709 0.661365 9.12741 0.661365 8.70371C0.661365 8.28 1.00486 7.93651 1.42856 7.93651C1.85226 7.93651 2.19576 8.28 2.19576 8.70371Z" fill="#092C4C"/>
<path d="M9.60319 8.43915H3.62434C3.47823 8.43915 3.35979 8.55759 3.35979 8.7037C3.35979 8.84981 3.47823 8.96825 3.62434 8.96825H9.60319C9.7493 8.96825 9.86774 8.84981 9.86774 8.7037C9.86774 8.55759 9.7493 8.43915 9.60319 8.43915Z" fill="#092C4C"/>
</svg>
