<svg width="24" height="25" viewBox="0 0 24 25" fill="none" xmlns="http://www.w3.org/2000/svg">
<g id="Icon/Outline/more-vertical">
<path id="Mask" fill-rule="evenodd" clip-rule="evenodd" d="M12 7.5258C13.104 7.5258 14 6.65003 14 5.57096C14 4.49189 13.104 3.61612 12 3.61612C10.896 3.61612 10 4.49189 10 5.57096C10 6.65003 10.896 7.5258 12 7.5258ZM12 10.4581C10.896 10.4581 10 11.3338 10 12.4129C10 13.492 10.896 14.3677 12 14.3677C13.104 14.3677 14 13.492 14 12.4129C14 11.3338 13.104 10.4581 12 10.4581ZM10 19.2548C10 18.1758 10.896 17.3 12 17.3C13.104 17.3 14 18.1758 14 19.2548C14 20.3339 13.104 21.2097 12 21.2097C10.896 21.2097 10 20.3339 10 19.2548Z" fill="#231F20"/>
<mask id="mask0" mask-type="alpha" maskUnits="userSpaceOnUse" x="10" y="3" width="4" height="19">
<path id="Mask_2" fill-rule="evenodd" clip-rule="evenodd" d="M12 7.5258C13.104 7.5258 14 6.65003 14 5.57096C14 4.49189 13.104 3.61612 12 3.61612C10.896 3.61612 10 4.49189 10 5.57096C10 6.65003 10.896 7.5258 12 7.5258ZM12 10.4581C10.896 10.4581 10 11.3338 10 12.4129C10 13.492 10.896 14.3677 12 14.3677C13.104 14.3677 14 13.492 14 12.4129C14 11.3338 13.104 10.4581 12 10.4581ZM10 19.2548C10 18.1758 10.896 17.3 12 17.3C13.104 17.3 14 18.1758 14 19.2548C14 20.3339 13.104 21.2097 12 21.2097C10.896 21.2097 10 20.3339 10 19.2548Z" fill="white"/>
</mask>
<g mask="url(#mask0)">
<g id="&#240;&#159;&#142;&#168; Color">
<rect id="Base" y="0.683868" width="24" height="23.4581" fill="#707C97"/>
</g>
</g>
</g>
</svg>
