<svg width="39" height="39" viewBox="0 0 39 39" fill="none" xmlns="http://www.w3.org/2000/svg">
<rect x="3.59491" y="4" width="31" height="31" fill="#F8F9FB"/>
<ellipse cx="19.0947" cy="19.5" rx="12.9167" ry="12.9167" transform="rotate(60 19.0947 19.5)" stroke="#092C4C" stroke-width="2"/>
<circle cx="19" cy="19" r="3" fill="#092C4C"/>
<path d="M19.0949 12.75C21.8156 12.75 24.1265 14.0138 25.9385 15.5679C27.7054 17.0833 28.9266 18.8158 29.4941 19.7099C28.7667 20.5395 27.2363 22.1768 25.334 23.6119C23.361 25.1005 21.1462 26.25 19.0949 26.25C17.0435 26.25 14.8287 25.1005 12.8557 23.6119C10.9534 22.1768 9.42296 20.5395 8.69556 19.7099C9.26308 18.8158 10.4843 17.0833 12.2512 15.5679C14.0632 14.0138 16.3741 12.75 19.0949 12.75Z" stroke="#092C4C" stroke-width="2"/>
</svg>
