<svg width="16" height="16" viewBox="0 0 16 16" fill="none" xmlns="http://www.w3.org/2000/svg">
<path d="M15.1969 8.11335L14.8748 8.46576L15.212 8.80377C15.3947 8.98695 15.5 9.23394 15.5 9.50001C15.5 9.88341 15.2809 10.2219 14.9523 10.3875L14.5072 10.6119L14.7301 11.0576C14.7972 11.1918 14.8333 11.3412 14.8333 11.5C14.8333 11.8833 14.6137 12.2222 14.2854 12.3873L13.8397 12.6114L14.0628 13.0576C14.1628 13.2577 14.1941 13.4906 14.1418 13.7282C14.0467 14.1573 13.6281 14.5 13.1193 14.5H7C6.61024 14.5 5.94284 14.3664 5.46404 14.12L4.95835 13.8599L4.76507 14.3947C4.60223 14.8454 4.16965 15.1667 3.66666 15.1667H1.66666C1.02348 15.1667 0.5 14.6432 0.5 14V8.66666C0.5 8.0235 1.02348 7.50001 1.66666 7.49998C1.66666 7.49998 1.66667 7.49998 1.66667 7.49998H4.83331V8.27868L5.56132 7.90565L5.64067 7.86499L5.79425 7.7863L5.8666 7.62962L7.78725 3.47028L7.83331 3.37053V3.26066V1.08718C7.96489 1.00284 8.27766 0.833351 8.66666 0.833351C8.73562 0.833351 8.86602 0.864367 9.04335 0.973015C9.21457 1.07792 9.39993 1.2376 9.57128 1.44389C9.91657 1.85963 10.1667 2.41685 10.1667 3.00001C10.1667 3.82483 9.86429 4.89335 9.6611 5.51024L9.44488 6.16666H10.136H14.254C14.9146 6.16666 15.4422 6.65474 15.4947 7.22353C15.5252 7.55763 15.4142 7.87564 15.1969 8.11335Z" fill="#092C4C" stroke="#092C4C"/>
</svg>
