<svg width="16" height="16" viewBox="0 0 16 16" fill="none" xmlns="http://www.w3.org/2000/svg">
<g clip-path="url(#clip0)">
<path d="M12.7401 8.76863C12.0623 8.28153 11.3243 7.90662 10.5469 7.65056C11.5805 6.87456 12.2504 5.63903 12.2504 4.25C12.2504 1.90656 10.3439 0 8.00038 0C5.65692 0 3.75038 1.90656 3.75038 4.25C3.75038 5.64075 4.42188 6.87762 5.45767 7.65347C4.50867 7.96591 3.6182 8.45206 2.83882 9.09313C1.4097 10.2687 0.416041 11.9083 0.0409472 13.7101C-0.0766153 14.2747 0.0642284 14.8545 0.427291 15.301C0.788572 15.7452 1.32429 16 1.89704 16H8.34413C8.68932 16 8.96913 15.7202 8.96913 15.375C8.96913 15.0298 8.68932 14.75 8.34413 14.75H1.89704C1.63023 14.75 1.46926 14.6011 1.39707 14.5123C1.27242 14.359 1.22417 14.1595 1.2647 13.9648C1.91332 10.8494 4.66129 8.57356 7.8347 8.49681C7.88967 8.49894 7.94488 8.5 8.00038 8.5C8.05626 8.5 8.11192 8.49891 8.16729 8.49675C9.55685 8.52962 10.8824 8.97288 12.0107 9.78369C12.2909 9.98513 12.6815 9.92116 12.8829 9.64091C13.0844 9.36059 13.0204 8.97006 12.7401 8.76863ZM8.15254 7.24619C8.10188 7.24525 8.05117 7.24478 8.00038 7.24478C7.94995 7.24478 7.89951 7.24528 7.84913 7.24622C6.26492 7.16719 5.00038 5.8535 5.00038 4.25C5.00038 2.59578 6.34617 1.25 8.00038 1.25C9.6546 1.25 11.0004 2.59578 11.0004 4.25C11.0004 5.85319 9.73632 7.16669 8.15254 7.24619Z" fill="white"/>
<path d="M14.2277 13.3438L15.817 11.7545C16.0611 11.5104 16.0611 11.1146 15.817 10.8706C15.5729 10.6265 15.1771 10.6265 14.9331 10.8706L13.3438 12.4599L11.7544 10.8705C11.5104 10.6264 11.1146 10.6264 10.8706 10.8705C10.6265 11.1146 10.6265 11.5104 10.8706 11.7544L12.4599 13.3438L10.8706 14.933C10.6265 15.1771 10.6265 15.5729 10.8706 15.8169C10.9926 15.939 11.1525 16 11.3125 16C11.4725 16 11.6324 15.939 11.7544 15.817L13.3438 14.2277L14.9331 15.817C15.0551 15.939 15.2151 16 15.375 16C15.535 16 15.6949 15.939 15.817 15.817C16.0611 15.5729 16.0611 15.1771 15.817 14.9331L14.2277 13.3438Z" fill="#EB5757"/>
</g>
<defs>
<clipPath id="clip0">
<rect width="16" height="16" fill="white"/>
</clipPath>
</defs>
</svg>
