<svg width="21" height="22" viewBox="0 0 21 22" fill="none" xmlns="http://www.w3.org/2000/svg">
<g id="Icon/Fill/navigation-2" filter="url(#filter0_dd)">
<path id="Mask" fill-rule="evenodd" clip-rule="evenodd" d="M12.3891 18.6935C12.3716 18.6935 12.355 18.6927 12.3383 18.6919C11.9616 18.6699 11.6475 18.4027 11.5725 18.0411L10.2908 11.8777C10.2241 11.5567 9.96831 11.3067 9.63998 11.2415L3.33414 9.98797C2.96414 9.91548 2.69081 9.60841 2.66831 9.24025C2.64581 8.87127 2.87831 8.53406 3.23664 8.4184L16.57 4.07459C16.8691 3.97522 17.1991 4.05178 17.4225 4.27088C17.6458 4.48918 17.7233 4.81172 17.6241 5.10413L13.1791 18.1364C13.0658 18.4712 12.7458 18.6935 12.3891 18.6935Z" fill="#231F20"/>
<mask id="mask0" mask-type="alpha" maskUnits="userSpaceOnUse" x="2" y="4" width="16" height="15">
<path id="Mask_2" fill-rule="evenodd" clip-rule="evenodd" d="M12.3891 18.6935C12.3716 18.6935 12.355 18.6927 12.3383 18.6919C11.9616 18.6699 11.6475 18.4027 11.5725 18.0411L10.2908 11.8777C10.2241 11.5567 9.96831 11.3067 9.63998 11.2415L3.33414 9.98797C2.96414 9.91548 2.69081 9.60841 2.66831 9.24025C2.64581 8.87127 2.87831 8.53406 3.23664 8.4184L16.57 4.07459C16.8691 3.97522 17.1991 4.05178 17.4225 4.27088C17.6458 4.48918 17.7233 4.81172 17.6241 5.10413L13.1791 18.1364C13.0658 18.4712 12.7458 18.6935 12.3891 18.6935Z" fill="white"/>
</mask>
<g mask="url(#mask0)">
<g id="&#240;&#159;&#142;&#168; Color">
<rect id="Base" x="1" y="0.77417" width="20" height="19.5484" fill="white"/>
</g>
</g>
</g>
<defs>
<filter id="filter0_dd" x="-1" y="-0.22583" width="24" height="23.5484" filterUnits="userSpaceOnUse" color-interpolation-filters="sRGB">
<feFlood flood-opacity="0" result="BackgroundImageFix"/>
<feColorMatrix in="SourceAlpha" type="matrix" values="0 0 0 0 0 0 0 0 0 0 0 0 0 0 0 0 0 0 127 0"/>
<feOffset dy="1"/>
<feGaussianBlur stdDeviation="0.5"/>
<feColorMatrix type="matrix" values="0 0 0 0 0 0 0 0 0 0 0 0 0 0 0 0 0 0 0.03 0"/>
<feBlend mode="normal" in2="BackgroundImageFix" result="effect1_dropShadow"/>
<feColorMatrix in="SourceAlpha" type="matrix" values="0 0 0 0 0 0 0 0 0 0 0 0 0 0 0 0 0 0 127 0"/>
<feOffset dy="1"/>
<feGaussianBlur stdDeviation="1"/>
<feColorMatrix type="matrix" values="0 0 0 0 0 0 0 0 0 0 0 0 0 0 0 0 0 0 0.03 0"/>
<feBlend mode="normal" in2="effect1_dropShadow" result="effect2_dropShadow"/>
<feBlend mode="normal" in="SourceGraphic" in2="effect2_dropShadow" result="shape"/>
</filter>
</defs>
</svg>
