<svg width="22" height="22" viewBox="0 0 22 22" fill="none" xmlns="http://www.w3.org/2000/svg">
<g clip-path="url(#clip0)">
<path d="M21.6111 8.46381C21.4714 8.03075 21.0883 7.72317 20.635 7.68222L14.4776 7.12172L12.0428 1.4086C11.8633 0.989903 11.4544 0.718875 11.0001 0.718875C10.5459 0.718875 10.137 0.989903 9.95748 1.40958L7.52268 7.12172L1.36432 7.68222C0.911837 7.72415 0.529665 8.03075 0.3892 8.46381C0.248734 8.89687 0.378457 9.37186 0.720751 9.67128L5.375 13.7633L4.00257 19.824C3.90215 20.2696 4.07468 20.7302 4.4435 20.9975C4.64175 21.1411 4.87369 21.2142 5.10758 21.2142C5.30925 21.2142 5.50929 21.1597 5.68882 21.052L11.0001 17.8697L16.3095 21.052C16.698 21.2863 17.1878 21.2649 17.5558 20.9975C17.9248 20.7294 18.0972 20.2686 17.9967 19.824L16.6243 13.7633L21.2786 9.6721C21.6209 9.37186 21.7516 8.89768 21.6111 8.46381Z" fill="#FFC107"/>
</g>
<defs>
<clipPath id="clip0">
<rect width="21.3333" height="21.3867" fill="white" transform="translate(0.333313 0.259995)"/>
</clipPath>
</defs>
</svg>
