<svg width="16" height="12" viewBox="0 0 16 12" fill="none" xmlns="http://www.w3.org/2000/svg">
<path d="M7.71738 1.97985L8 2.42398L8.28263 1.97985C8.92082 0.976979 10.0473 0.335 11.3333 0.335C13.3483 0.335 14.9983 1.98502 14.9983 4C14.9983 4.89921 14.5844 5.82978 13.9174 6.73939C13.2529 7.64553 12.3596 8.50025 11.4545 9.24072C10.5512 9.97985 9.64611 10.5971 8.96598 11.0299C8.62625 11.2461 8.34344 11.4157 8.14608 11.5311C8.09063 11.5635 8.04194 11.5916 8.00064 11.6152C7.95927 11.5914 7.91045 11.563 7.85484 11.5302C7.65743 11.414 7.37457 11.2432 7.03478 11.0257C6.35456 10.5902 5.44936 9.96982 4.54583 9.22851C3.64063 8.48584 2.74714 7.62994 2.08249 6.72512C1.4151 5.81656 1.00167 4.89032 1.00167 4C1.00167 1.98502 2.65169 0.335 4.66667 0.335C5.95272 0.335 7.07919 0.976979 7.71738 1.97985Z" fill="white" stroke="#F44336" stroke-width="0.67"/>
</svg>
