<svg width="31" height="31" viewBox="0 0 31 31" fill="none" xmlns="http://www.w3.org/2000/svg">
<g clip-path="url(#clip0)">
<path d="M9.40456 3.45978C6.28452 3.45978 3.74622 6.15109 3.74622 9.45913C3.74622 12.7672 6.28452 15.4585 9.40456 15.4585C12.5246 15.4585 15.063 12.7672 15.063 9.45913C15.063 6.15109 12.5247 3.45978 9.40456 3.45978Z" fill="#092C4C"/>
<path d="M22.269 4.31824C22.2562 4.31824 22.2433 4.3183 22.2305 4.31836C20.9211 4.3292 19.6981 4.88205 18.7867 5.8752C17.8914 6.85079 17.4045 8.13784 17.4157 9.49917C17.427 10.8605 17.935 12.1393 18.8463 13.1001C19.7648 14.0683 20.9815 14.6 22.2763 14.6C22.2894 14.6 22.3024 14.5999 22.3155 14.5999C23.6248 14.589 24.8479 14.0361 25.7592 13.043C26.6546 12.0675 27.1415 10.7804 27.1303 9.41901C27.1069 6.59789 24.93 4.31824 22.269 4.31824Z" fill="#092C4C"/>
<path d="M22.5077 15.5822H22.0378C19.8497 15.5822 17.8528 16.4141 16.3452 17.7776C16.7224 18.0671 17.0815 18.3825 17.4218 18.7228C18.4256 19.7266 19.2139 20.8964 19.7649 22.1994C20.2614 23.3728 20.5448 24.6091 20.6108 25.8824H31V24.0739C31 19.3918 27.1904 15.5822 22.5077 15.5822Z" fill="#092C4C"/>
<path d="M18.7907 25.8825C18.6194 23.1222 17.2201 20.6942 15.1319 19.1382C13.6128 18.0059 11.7285 17.3357 9.6875 17.3357H9.12199C4.08389 17.3358 0 21.4196 0 26.4577V27.5403H18.8089V26.4577C18.8089 26.2645 18.8028 26.0726 18.7907 25.8825Z" fill="#092C4C"/>
</g>
<defs>
<clipPath id="clip0">
<rect width="31" height="31" fill="white"/>
</clipPath>
</defs>
</svg>
