<svg width="39" height="39" viewBox="0 0 39 39" fill="none" xmlns="http://www.w3.org/2000/svg">
<rect x="3.59491" y="4" width="31" height="31" fill="#F8F9FB"/>
<ellipse cx="19.0947" cy="19.5" rx="12.9167" ry="12.9167" transform="rotate(60 19.0947 19.5)" fill="#092C4C" stroke="#092C4C" stroke-width="2"/>
<path d="M19.0949 11.75C25.1827 11.75 29.2302 17.409 30.3824 19.2436C30.596 19.5838 30.5572 20.0124 30.2933 20.3152C28.8339 21.9889 23.8669 27.25 19.0949 27.25C14.3228 27.25 9.35583 21.9889 7.89645 20.3152C7.63247 20.0124 7.59367 19.5838 7.8073 19.2436C8.9595 17.409 13.007 11.75 19.0949 11.75Z" fill="white"/>
<path d="M22 19C22 20.6569 20.6569 22 19 22C17.3431 22 16 20.6569 16 19C16 17.3431 17.3431 16 19 16C20.6569 16 22 17.3431 22 19Z" fill="#092C4C"/>
</svg>
