<svg width="40" height="35" viewBox="0 0 40 35" fill="none" xmlns="http://www.w3.org/2000/svg">
<path d="M19.1406 5.76136L20 7.20557L20.8594 5.76136C22.5982 2.83916 25.6445 1 29.0909 1C34.4764 1 39 5.73798 39 11.6667C39 14.302 37.8663 17.0205 36.0503 19.6688C34.2399 22.3089 31.8067 24.7987 29.3415 26.9558C26.8806 29.109 24.4151 30.9072 22.5624 32.1681C21.6369 32.7979 20.8667 33.2921 20.3294 33.6279C20.208 33.7037 20.0986 33.7715 20.002 33.8309C19.9051 33.7708 19.7952 33.7024 19.6734 33.6256C19.1359 33.2873 18.3655 32.7896 17.4399 32.156C15.5869 30.8874 13.1209 29.0799 10.6595 26.9202C8.19386 24.7567 5.76002 22.2634 3.94929 19.6272C2.1324 16.982 1 14.2761 1 11.6667C1 5.73798 5.52356 1 10.9091 1C14.3555 1 17.4018 2.83916 19.1406 5.76136Z" fill="white" stroke="#F44336" stroke-width="2"/>
</svg>
